{
	"asset":{
		"generator":"Khronos glTF Blender I/O v3.6.27",
		"version":"2.0"
	},
	"scene":0,
	"scenes":[
		{
			"name":"Scene",
			"nodes":[
				0
			]
		}
	],
	"nodes":[
		{
			"mesh":0,
			"name":"SphereWithCube",
			"translation":[
				-1,
				3,
				-1
			]
		}
	],
	"materials":[
		{
			"doubleSided":true,
			"name":"Material.003",
			"pbrMetallicRoughness":{
				"baseColorFactor":[
					0,
					0,
					0,
					1
				],
				"roughnessFactor":0.5
			}
		},
		{
			"doubleSided":true,
			"name":"Material.005",
			"pbrMetallicRoughness":{
				"baseColorFactor":[
					0.800000011920929,
					0.800000011920929,
					0.800000011920929,
					1
				],
				"metallicFactor":0,
				"roughnessFactor":0.5
			}
		},
		{
			"doubleSided":true,
			"name":"Material.002",
			"pbrMetallicRoughness":{
				"metallicFactor":0,
				"roughnessFactor":0.5
			}
		},
		{
			"doubleSided":true,
			"name":"Material.004",
			"pbrMetallicRoughness":{
				"baseColorFactor":[
					0,
					0,
					0,
					1
				],
				"metallicFactor":0,
				"roughnessFactor":0.5
			}
		},
		{
			"doubleSided":true,
			"name":"Material.001",
			"pbrMetallicRoughness":{
				"roughnessFactor":0.5
			}
		}
	],
	"meshes":[
		{
			"name":"Sphere.003",
			"primitives":[
				{
					"attributes":{
						"POSITION":0,
						"NORMAL":1,
						"TEXCOORD_0":2,
						"TANGENT":3
					},
					"indices":4,
					"material":0
				},
				{
					"attributes":{
						"POSITION":5,
						"NORMAL":6,
						"TEXCOORD_0":7,
						"TANGENT":8
					},
					"indices":9,
					"material":1
				},
				{
					"attributes":{
						"POSITION":10,
						"NORMAL":11,
						"TEXCOORD_0":12,
						"TANGENT":13
					},
					"indices":14,
					"material":2
				},
				{
					"attributes":{
						"POSITION":15,
						"NORMAL":16,
						"TEXCOORD_0":17,
						"TANGENT":18
					},
					"indices":14,
					"material":3
				},
				{
					"attributes":{
						"POSITION":19,
						"NORMAL":20,
						"TEXCOORD_0":21,
						"TANGENT":22
					},
					"indices":4,
					"material":4
				}
			]
		}
	],
	"accessors":[
		{
			"bufferView":0,
			"componentType":5126,
			"count":1984,
			"max":[
				0.9999997019767761,
				1,
				0.9999993443489075
			],
			"min":[
				-0.9999990463256836,
				-1,
				-1
			],
			"type":"VEC3"
		},
		{
			"bufferView":1,
			"componentType":5126,
			"count":1984,
			"type":"VEC3"
		},
		{
			"bufferView":2,
			"componentType":5126,
			"count":1984,
			"type":"VEC2"
		},
		{
			"bufferView":3,
			"componentType":5126,
			"count":1984,
			"type":"VEC4"
		},
		{
			"bufferView":4,
			"componentType":5123,
			"count":2880,
			"type":"SCALAR"
		},
		{
			"bufferView":5,
			"componentType":5126,
			"count":24,
			"max":[
				3,
				-1,
				3
			],
			"min":[
				-1,
				-5,
				-1
			],
			"type":"VEC3"
		},
		{
			"bufferView":6,
			"componentType":5126,
			"count":24,
			"type":"VEC3"
		},
		{
			"bufferView":7,
			"componentType":5126,
			"count":24,
			"type":"VEC2"
		},
		{
			"bufferView":8,
			"componentType":5126,
			"count":24,
			"type":"VEC4"
		},
		{
			"bufferView":9,
			"componentType":5123,
			"count":36,
			"type":"SCALAR"
		},
		{
			"bufferView":10,
			"componentType":5126,
			"count":1984,
			"max":[
				2.999999761581421,
				1,
				2.9999992847442627
			],
			"min":[
				1.0000009536743164,
				-1,
				1
			],
			"type":"VEC3"
		},
		{
			"bufferView":11,
			"componentType":5126,
			"count":1984,
			"type":"VEC3"
		},
		{
			"bufferView":12,
			"componentType":5126,
			"count":1984,
			"type":"VEC2"
		},
		{
			"bufferView":13,
			"componentType":5126,
			"count":1984,
			"type":"VEC4"
		},
		{
			"bufferView":14,
			"componentType":5123,
			"count":2880,
			"type":"SCALAR"
		},
		{
			"bufferView":15,
			"componentType":5126,
			"count":1984,
			"max":[
				2.999999761581421,
				1,
				0.9999993443489075
			],
			"min":[
				1.0000009536743164,
				-1,
				-1
			],
			"type":"VEC3"
		},
		{
			"bufferView":16,
			"componentType":5126,
			"count":1984,
			"type":"VEC3"
		},
		{
			"bufferView":17,
			"componentType":5126,
			"count":1984,
			"type":"VEC2"
		},
		{
			"bufferView":18,
			"componentType":5126,
			"count":1984,
			"type":"VEC4"
		},
		{
			"bufferView":19,
			"componentType":5126,
			"count":1984,
			"max":[
				0.9999997019767761,
				1,
				2.9999992847442627
			],
			"min":[
				-0.9999990463256836,
				-1,
				1
			],
			"type":"VEC3"
		},
		{
			"bufferView":20,
			"componentType":5126,
			"count":1984,
			"type":"VEC3"
		},
		{
			"bufferView":21,
			"componentType":5126,
			"count":1984,
			"type":"VEC2"
		},
		{
			"bufferView":22,
			"componentType":5126,
			"count":1984,
			"type":"VEC4"
		}
	],
	"bufferViews":[
		{
			"buffer":0,
			"byteLength":23808,
			"byteOffset":0,
			"target":34962
		},
		{
			"buffer":0,
			"byteLength":23808,
			"byteOffset":23808,
			"target":34962
		},
		{
			"buffer":0,
			"byteLength":15872,
			"byteOffset":47616,
			"target":34962
		},
		{
			"buffer":0,
			"byteLength":31744,
			"byteOffset":63488,
			"target":34962
		},
		{
			"buffer":0,
			"byteLength":5760,
			"byteOffset":95232,
			"target":34963
		},
		{
			"buffer":0,
			"byteLength":288,
			"byteOffset":100992,
			"target":34962
		},
		{
			"buffer":0,
			"byteLength":288,
			"byteOffset":101280,
			"target":34962
		},
		{
			"buffer":0,
			"byteLength":192,
			"byteOffset":101568,
			"target":34962
		},
		{
			"buffer":0,
			"byteLength":384,
			"byteOffset":101760,
			"target":34962
		},
		{
			"buffer":0,
			"byteLength":72,
			"byteOffset":102144,
			"target":34963
		},
		{
			"buffer":0,
			"byteLength":23808,
			"byteOffset":102216,
			"target":34962
		},
		{
			"buffer":0,
			"byteLength":23808,
			"byteOffset":126024,
			"target":34962
		},
		{
			"buffer":0,
			"byteLength":15872,
			"byteOffset":149832,
			"target":34962
		},
		{
			"buffer":0,
			"byteLength":31744,
			"byteOffset":165704,
			"target":34962
		},
		{
			"buffer":0,
			"byteLength":5760,
			"byteOffset":197448,
			"target":34963
		},
		{
			"buffer":0,
			"byteLength":23808,
			"byteOffset":203208,
			"target":34962
		},
		{
			"buffer":0,
			"byteLength":23808,
			"byteOffset":227016,
			"target":34962
		},
		{
			"buffer":0,
			"byteLength":15872,
			"byteOffset":250824,
			"target":34962
		},
		{
			"buffer":0,
			"byteLength":31744,
			"byteOffset":266696,
			"target":34962
		},
		{
			"buffer":0,
			"byteLength":23808,
			"byteOffset":298440,
			"target":34962
		},
		{
			"buffer":0,
			"byteLength":23808,
			"byteOffset":322248,
			"target":34962
		},
		{
			"buffer":0,
			"byteLength":15872,
			"byteOffset":346056,
			"target":34962
		},
		{
			"buffer":0,
			"byteLength":31744,
			"byteOffset":361928,
			"target":34962
		}
	],
	"buffers":[
		{
			"byteLength":393672,
			"uri":"data:application/octet-stream;base64,"
		}
	]
}
